<?xml version="1.0" encoding="utf-8" standalone="no"?>
<!DOCTYPE svg PUBLIC "-//W3C//DTD SVG 1.1//EN"
  "http://www.w3.org/Graphics/SVG/1.1/DTD/svg11.dtd">
<svg xmlns:xlink="http://www.w3.org/1999/xlink" width="1080pt" height="288pt" viewBox="0 0 1080 288" xmlns="http://www.w3.org/2000/svg" version="1.1">
 <metadata>
  <rdf:RDF xmlns:dc="http://purl.org/dc/elements/1.1/" xmlns:cc="http://creativecommons.org/ns#" xmlns:rdf="http://www.w3.org/1999/02/22-rdf-syntax-ns#">
   <cc:Work>
    <dc:type rdf:resource="http://purl.org/dc/dcmitype/StillImage"/>
    <dc:date>2022-04-04T14:44:40.590071</dc:date>
    <dc:format>image/svg+xml</dc:format>
    <dc:creator>
     <cc:Agent>
      <dc:title>Matplotlib v3.5.1, https://matplotlib.org/</dc:title>
     </cc:Agent>
    </dc:creator>
   </cc:Work>
  </rdf:RDF>
 </metadata>
 <defs>
  <style type="text/css">*{stroke-linejoin: round; stroke-linecap: butt}</style>
 </defs>
 <g id="figure_1">
  <g id="patch_1">
   <path d="M 0 288 
L 1080 288 
L 1080 0 
L 0 0 
L 0 288 
z
" style="fill: none"/>
  </g>
  <g id="axes_1">
   <g id="patch_2">
    <path d="M 135 252 
L 972 252 
L 972 34.56 
L 135 34.56 
z
" style="fill: #ffffff"/>
   </g>
   <g id="matplotlib.axis_1">
    <g id="xtick_1">
     <g id="line2d_1">
      <defs>
       <path id="m75ffea9ad6" d="M 0 0 
L 0 3.5 
" style="stroke: #000000; stroke-width: 0.8"/>
      </defs>
      <g>
       <use xlink:href="#m75ffea9ad6" x="173.045455" y="252" style="stroke: #000000; stroke-width: 0.8"/>
      </g>
     </g>
     <g id="text_1">
      <!-- 0 -->
      <g transform="translate(169.864205 266.598437)scale(0.1 -0.1)">
       <defs>
        <path id="DejaVuSans-30" d="M 2034 4250 
Q 1547 4250 1301 3770 
Q 1056 3291 1056 2328 
Q 1056 1369 1301 889 
Q 1547 409 2034 409 
Q 2525 409 2770 889 
Q 3016 1369 3016 2328 
Q 3016 3291 2770 3770 
Q 2525 4250 2034 4250 
z
M 2034 4750 
Q 2819 4750 3233 4129 
Q 3647 3509 3647 2328 
Q 3647 1150 3233 529 
Q 2819 -91 2034 -91 
Q 1250 -91 836 529 
Q 422 1150 422 2328 
Q 422 3509 836 4129 
Q 1250 4750 2034 4750 
z
" transform="scale(0.015625)"/>
       </defs>
       <use xlink:href="#DejaVuSans-30"/>
      </g>
     </g>
    </g>
    <g id="xtick_2">
     <g id="line2d_2">
      <g>
       <use xlink:href="#m75ffea9ad6" x="338.460474" y="252" style="stroke: #000000; stroke-width: 0.8"/>
      </g>
     </g>
     <g id="text_2">
      <!-- 10 -->
      <g transform="translate(332.097974 266.598437)scale(0.1 -0.1)">
       <defs>
        <path id="DejaVuSans-31" d="M 794 531 
L 1825 531 
L 1825 4091 
L 703 3866 
L 703 4441 
L 1819 4666 
L 2450 4666 
L 2450 531 
L 3481 531 
L 3481 0 
L 794 0 
L 794 531 
z
" transform="scale(0.015625)"/>
       </defs>
       <use xlink:href="#DejaVuSans-31"/>
       <use xlink:href="#DejaVuSans-30" x="63.623047"/>
      </g>
     </g>
    </g>
    <g id="xtick_3">
     <g id="line2d_3">
      <g>
       <use xlink:href="#m75ffea9ad6" x="503.875494" y="252" style="stroke: #000000; stroke-width: 0.8"/>
      </g>
     </g>
     <g id="text_3">
      <!-- 20 -->
      <g transform="translate(497.512994 266.598437)scale(0.1 -0.1)">
       <defs>
        <path id="DejaVuSans-32" d="M 1228 531 
L 3431 531 
L 3431 0 
L 469 0 
L 469 531 
Q 828 903 1448 1529 
Q 2069 2156 2228 2338 
Q 2531 2678 2651 2914 
Q 2772 3150 2772 3378 
Q 2772 3750 2511 3984 
Q 2250 4219 1831 4219 
Q 1534 4219 1204 4116 
Q 875 4013 500 3803 
L 500 4441 
Q 881 4594 1212 4672 
Q 1544 4750 1819 4750 
Q 2544 4750 2975 4387 
Q 3406 4025 3406 3419 
Q 3406 3131 3298 2873 
Q 3191 2616 2906 2266 
Q 2828 2175 2409 1742 
Q 1991 1309 1228 531 
z
" transform="scale(0.015625)"/>
       </defs>
       <use xlink:href="#DejaVuSans-32"/>
       <use xlink:href="#DejaVuSans-30" x="63.623047"/>
      </g>
     </g>
    </g>
    <g id="xtick_4">
     <g id="line2d_4">
      <g>
       <use xlink:href="#m75ffea9ad6" x="669.290514" y="252" style="stroke: #000000; stroke-width: 0.8"/>
      </g>
     </g>
     <g id="text_4">
      <!-- 30 -->
      <g transform="translate(662.928014 266.598437)scale(0.1 -0.1)">
       <defs>
        <path id="DejaVuSans-33" d="M 2597 2516 
Q 3050 2419 3304 2112 
Q 3559 1806 3559 1356 
Q 3559 666 3084 287 
Q 2609 -91 1734 -91 
Q 1441 -91 1130 -33 
Q 819 25 488 141 
L 488 750 
Q 750 597 1062 519 
Q 1375 441 1716 441 
Q 2309 441 2620 675 
Q 2931 909 2931 1356 
Q 2931 1769 2642 2001 
Q 2353 2234 1838 2234 
L 1294 2234 
L 1294 2753 
L 1863 2753 
Q 2328 2753 2575 2939 
Q 2822 3125 2822 3475 
Q 2822 3834 2567 4026 
Q 2313 4219 1838 4219 
Q 1578 4219 1281 4162 
Q 984 4106 628 3988 
L 628 4550 
Q 988 4650 1302 4700 
Q 1616 4750 1894 4750 
Q 2613 4750 3031 4423 
Q 3450 4097 3450 3541 
Q 3450 3153 3228 2886 
Q 3006 2619 2597 2516 
z
" transform="scale(0.015625)"/>
       </defs>
       <use xlink:href="#DejaVuSans-33"/>
       <use xlink:href="#DejaVuSans-30" x="63.623047"/>
      </g>
     </g>
    </g>
    <g id="xtick_5">
     <g id="line2d_5">
      <g>
       <use xlink:href="#m75ffea9ad6" x="834.705534" y="252" style="stroke: #000000; stroke-width: 0.8"/>
      </g>
     </g>
     <g id="text_5">
      <!-- 40 -->
      <g transform="translate(828.343034 266.598437)scale(0.1 -0.1)">
       <defs>
        <path id="DejaVuSans-34" d="M 2419 4116 
L 825 1625 
L 2419 1625 
L 2419 4116 
z
M 2253 4666 
L 3047 4666 
L 3047 1625 
L 3713 1625 
L 3713 1100 
L 3047 1100 
L 3047 0 
L 2419 0 
L 2419 1100 
L 313 1100 
L 313 1709 
L 2253 4666 
z
" transform="scale(0.015625)"/>
       </defs>
       <use xlink:href="#DejaVuSans-34"/>
       <use xlink:href="#DejaVuSans-30" x="63.623047"/>
      </g>
     </g>
    </g>
   </g>
   <g id="matplotlib.axis_2">
    <g id="ytick_1">
     <g id="line2d_6">
      <defs>
       <path id="m2f59724803" d="M 0 0 
L -3.5 0 
" style="stroke: #000000; stroke-width: 0.8"/>
      </defs>
      <g>
       <use xlink:href="#m2f59724803" x="135" y="242.574251" style="stroke: #000000; stroke-width: 0.8"/>
      </g>
     </g>
     <g id="text_6">
      <!-- −1.00 -->
      <g transform="translate(97.354687 246.37347)scale(0.1 -0.1)">
       <defs>
        <path id="DejaVuSans-2212" d="M 678 2272 
L 4684 2272 
L 4684 1741 
L 678 1741 
L 678 2272 
z
" transform="scale(0.015625)"/>
        <path id="DejaVuSans-2e" d="M 684 794 
L 1344 794 
L 1344 0 
L 684 0 
L 684 794 
z
" transform="scale(0.015625)"/>
       </defs>
       <use xlink:href="#DejaVuSans-2212"/>
       <use xlink:href="#DejaVuSans-31" x="83.789062"/>
       <use xlink:href="#DejaVuSans-2e" x="147.412109"/>
       <use xlink:href="#DejaVuSans-30" x="179.199219"/>
       <use xlink:href="#DejaVuSans-30" x="242.822266"/>
      </g>
     </g>
    </g>
    <g id="ytick_2">
     <g id="line2d_7">
      <g>
       <use xlink:href="#m2f59724803" x="135" y="217.80156" style="stroke: #000000; stroke-width: 0.8"/>
      </g>
     </g>
     <g id="text_7">
      <!-- −0.75 -->
      <g transform="translate(97.354687 221.600779)scale(0.1 -0.1)">
       <defs>
        <path id="DejaVuSans-37" d="M 525 4666 
L 3525 4666 
L 3525 4397 
L 1831 0 
L 1172 0 
L 2766 4134 
L 525 4134 
L 525 4666 
z
" transform="scale(0.015625)"/>
        <path id="DejaVuSans-35" d="M 691 4666 
L 3169 4666 
L 3169 4134 
L 1269 4134 
L 1269 2991 
Q 1406 3038 1543 3061 
Q 1681 3084 1819 3084 
Q 2600 3084 3056 2656 
Q 3513 2228 3513 1497 
Q 3513 744 3044 326 
Q 2575 -91 1722 -91 
Q 1428 -91 1123 -41 
Q 819 9 494 109 
L 494 744 
Q 775 591 1075 516 
Q 1375 441 1709 441 
Q 2250 441 2565 725 
Q 2881 1009 2881 1497 
Q 2881 1984 2565 2268 
Q 2250 2553 1709 2553 
Q 1456 2553 1204 2497 
Q 953 2441 691 2322 
L 691 4666 
z
" transform="scale(0.015625)"/>
       </defs>
       <use xlink:href="#DejaVuSans-2212"/>
       <use xlink:href="#DejaVuSans-30" x="83.789062"/>
       <use xlink:href="#DejaVuSans-2e" x="147.412109"/>
       <use xlink:href="#DejaVuSans-37" x="179.199219"/>
       <use xlink:href="#DejaVuSans-35" x="242.822266"/>
      </g>
     </g>
    </g>
    <g id="ytick_3">
     <g id="line2d_8">
      <g>
       <use xlink:href="#m2f59724803" x="135" y="193.028869" style="stroke: #000000; stroke-width: 0.8"/>
      </g>
     </g>
     <g id="text_8">
      <!-- −0.50 -->
      <g transform="translate(97.354687 196.828088)scale(0.1 -0.1)">
       <use xlink:href="#DejaVuSans-2212"/>
       <use xlink:href="#DejaVuSans-30" x="83.789062"/>
       <use xlink:href="#DejaVuSans-2e" x="147.412109"/>
       <use xlink:href="#DejaVuSans-35" x="179.199219"/>
       <use xlink:href="#DejaVuSans-30" x="242.822266"/>
      </g>
     </g>
    </g>
    <g id="ytick_4">
     <g id="line2d_9">
      <g>
       <use xlink:href="#m2f59724803" x="135" y="168.256179" style="stroke: #000000; stroke-width: 0.8"/>
      </g>
     </g>
     <g id="text_9">
      <!-- −0.25 -->
      <g transform="translate(97.354687 172.055397)scale(0.1 -0.1)">
       <use xlink:href="#DejaVuSans-2212"/>
       <use xlink:href="#DejaVuSans-30" x="83.789062"/>
       <use xlink:href="#DejaVuSans-2e" x="147.412109"/>
       <use xlink:href="#DejaVuSans-32" x="179.199219"/>
       <use xlink:href="#DejaVuSans-35" x="242.822266"/>
      </g>
     </g>
    </g>
    <g id="ytick_5">
     <g id="line2d_10">
      <g>
       <use xlink:href="#m2f59724803" x="135" y="143.483488" style="stroke: #000000; stroke-width: 0.8"/>
      </g>
     </g>
     <g id="text_10">
      <!-- 0.00 -->
      <g transform="translate(105.734375 147.282707)scale(0.1 -0.1)">
       <use xlink:href="#DejaVuSans-30"/>
       <use xlink:href="#DejaVuSans-2e" x="63.623047"/>
       <use xlink:href="#DejaVuSans-30" x="95.410156"/>
       <use xlink:href="#DejaVuSans-30" x="159.033203"/>
      </g>
     </g>
    </g>
    <g id="ytick_6">
     <g id="line2d_11">
      <g>
       <use xlink:href="#m2f59724803" x="135" y="118.710797" style="stroke: #000000; stroke-width: 0.8"/>
      </g>
     </g>
     <g id="text_11">
      <!-- 0.25 -->
      <g transform="translate(105.734375 122.510016)scale(0.1 -0.1)">
       <use xlink:href="#DejaVuSans-30"/>
       <use xlink:href="#DejaVuSans-2e" x="63.623047"/>
       <use xlink:href="#DejaVuSans-32" x="95.410156"/>
       <use xlink:href="#DejaVuSans-35" x="159.033203"/>
      </g>
     </g>
    </g>
    <g id="ytick_7">
     <g id="line2d_12">
      <g>
       <use xlink:href="#m2f59724803" x="135" y="93.938107" style="stroke: #000000; stroke-width: 0.8"/>
      </g>
     </g>
     <g id="text_12">
      <!-- 0.50 -->
      <g transform="translate(105.734375 97.737325)scale(0.1 -0.1)">
       <use xlink:href="#DejaVuSans-30"/>
       <use xlink:href="#DejaVuSans-2e" x="63.623047"/>
       <use xlink:href="#DejaVuSans-35" x="95.410156"/>
       <use xlink:href="#DejaVuSans-30" x="159.033203"/>
      </g>
     </g>
    </g>
    <g id="ytick_8">
     <g id="line2d_13">
      <g>
       <use xlink:href="#m2f59724803" x="135" y="69.165416" style="stroke: #000000; stroke-width: 0.8"/>
      </g>
     </g>
     <g id="text_13">
      <!-- 0.75 -->
      <g transform="translate(105.734375 72.964635)scale(0.1 -0.1)">
       <use xlink:href="#DejaVuSans-30"/>
       <use xlink:href="#DejaVuSans-2e" x="63.623047"/>
       <use xlink:href="#DejaVuSans-37" x="95.410156"/>
       <use xlink:href="#DejaVuSans-35" x="159.033203"/>
      </g>
     </g>
    </g>
    <g id="ytick_9">
     <g id="line2d_14">
      <g>
       <use xlink:href="#m2f59724803" x="135" y="44.392725" style="stroke: #000000; stroke-width: 0.8"/>
      </g>
     </g>
     <g id="text_14">
      <!-- 1.00 -->
      <g transform="translate(105.734375 48.191944)scale(0.1 -0.1)">
       <use xlink:href="#DejaVuSans-31"/>
       <use xlink:href="#DejaVuSans-2e" x="63.623047"/>
       <use xlink:href="#DejaVuSans-30" x="95.410156"/>
       <use xlink:href="#DejaVuSans-30" x="159.033203"/>
      </g>
     </g>
    </g>
   </g>
   <g id="line2d_15">
    <path d="M 173.045455 62.211994 
L 189.586957 48.488359 
L 206.128458 44.443636 
L 222.66996 50.489936 
L 239.211462 66.01121 
L 255.752964 89.426018 
L 272.294466 118.348662 
L 288.835968 149.832255 
L 305.37747 180.668982 
L 321.918972 207.716934 
L 338.460474 228.220237 
L 355.001976 240.089839 
L 371.543478 242.116364 
L 388.08498 234.093332 
L 404.626482 216.838199 
L 421.167984 192.109065 
L 437.709486 162.425542 
L 454.250988 130.812042 
L 470.79249 100.489617 
L 487.333992 74.547773 
L 503.875494 55.629686 
L 520.416996 45.662892 
L 536.958498 45.662892 
L 553.5 55.629686 
L 570.041502 74.547773 
L 586.583004 100.489617 
L 603.124506 130.812042 
L 619.666008 162.425542 
L 636.20751 192.109065 
L 652.749012 216.838199 
L 669.290514 234.093332 
L 685.832016 242.116364 
L 702.373518 240.089839 
L 718.91502 228.220237 
L 735.456522 207.716934 
L 751.998024 180.668982 
L 768.539526 149.832255 
L 785.081028 118.348662 
L 801.62253 89.426018 
L 818.164032 66.01121 
L 834.705534 50.489936 
L 851.247036 44.443636 
L 867.788538 48.488359 
L 884.33004 62.211994 
L 900.871542 84.216259 
L 917.413043 112.259174 
L 933.954545 143.483488 
" clip-path="url(#p695cb1c411)" style="fill: none; stroke: #ff0000; stroke-width: 1.5; stroke-linecap: square"/>
    <defs>
     <path id="m15aa7d0a34" d="M 0 3 
C 0.795609 3 1.55874 2.683901 2.12132 2.12132 
C 2.683901 1.55874 3 0.795609 3 0 
C 3 -0.795609 2.683901 -1.55874 2.12132 -2.12132 
C 1.55874 -2.683901 0.795609 -3 0 -3 
C -0.795609 -3 -1.55874 -2.683901 -2.12132 -2.12132 
C -2.683901 -1.55874 -3 -0.795609 -3 0 
C -3 0.795609 -2.683901 1.55874 -2.12132 2.12132 
C -1.55874 2.683901 -0.795609 3 0 3 
z
" style="stroke: #ff0000"/>
    </defs>
    <g clip-path="url(#p695cb1c411)">
     <use xlink:href="#m15aa7d0a34" x="173.045455" y="62.211994" style="fill: #ff0000; stroke: #ff0000"/>
     <use xlink:href="#m15aa7d0a34" x="189.586957" y="48.488359" style="fill: #ff0000; stroke: #ff0000"/>
     <use xlink:href="#m15aa7d0a34" x="206.128458" y="44.443636" style="fill: #ff0000; stroke: #ff0000"/>
     <use xlink:href="#m15aa7d0a34" x="222.66996" y="50.489936" style="fill: #ff0000; stroke: #ff0000"/>
     <use xlink:href="#m15aa7d0a34" x="239.211462" y="66.01121" style="fill: #ff0000; stroke: #ff0000"/>
     <use xlink:href="#m15aa7d0a34" x="255.752964" y="89.426018" style="fill: #ff0000; stroke: #ff0000"/>
     <use xlink:href="#m15aa7d0a34" x="272.294466" y="118.348662" style="fill: #ff0000; stroke: #ff0000"/>
     <use xlink:href="#m15aa7d0a34" x="288.835968" y="149.832255" style="fill: #ff0000; stroke: #ff0000"/>
     <use xlink:href="#m15aa7d0a34" x="305.37747" y="180.668982" style="fill: #ff0000; stroke: #ff0000"/>
     <use xlink:href="#m15aa7d0a34" x="321.918972" y="207.716934" style="fill: #ff0000; stroke: #ff0000"/>
     <use xlink:href="#m15aa7d0a34" x="338.460474" y="228.220237" style="fill: #ff0000; stroke: #ff0000"/>
     <use xlink:href="#m15aa7d0a34" x="355.001976" y="240.089839" style="fill: #ff0000; stroke: #ff0000"/>
     <use xlink:href="#m15aa7d0a34" x="371.543478" y="242.116364" style="fill: #ff0000; stroke: #ff0000"/>
     <use xlink:href="#m15aa7d0a34" x="388.08498" y="234.093332" style="fill: #ff0000; stroke: #ff0000"/>
     <use xlink:href="#m15aa7d0a34" x="404.626482" y="216.838199" style="fill: #ff0000; stroke: #ff0000"/>
     <use xlink:href="#m15aa7d0a34" x="421.167984" y="192.109065" style="fill: #ff0000; stroke: #ff0000"/>
     <use xlink:href="#m15aa7d0a34" x="437.709486" y="162.425542" style="fill: #ff0000; stroke: #ff0000"/>
     <use xlink:href="#m15aa7d0a34" x="454.250988" y="130.812042" style="fill: #ff0000; stroke: #ff0000"/>
     <use xlink:href="#m15aa7d0a34" x="470.79249" y="100.489617" style="fill: #ff0000; stroke: #ff0000"/>
     <use xlink:href="#m15aa7d0a34" x="487.333992" y="74.547773" style="fill: #ff0000; stroke: #ff0000"/>
     <use xlink:href="#m15aa7d0a34" x="503.875494" y="55.629686" style="fill: #ff0000; stroke: #ff0000"/>
     <use xlink:href="#m15aa7d0a34" x="520.416996" y="45.662892" style="fill: #ff0000; stroke: #ff0000"/>
     <use xlink:href="#m15aa7d0a34" x="536.958498" y="45.662892" style="fill: #ff0000; stroke: #ff0000"/>
     <use xlink:href="#m15aa7d0a34" x="553.5" y="55.629686" style="fill: #ff0000; stroke: #ff0000"/>
     <use xlink:href="#m15aa7d0a34" x="570.041502" y="74.547773" style="fill: #ff0000; stroke: #ff0000"/>
     <use xlink:href="#m15aa7d0a34" x="586.583004" y="100.489617" style="fill: #ff0000; stroke: #ff0000"/>
     <use xlink:href="#m15aa7d0a34" x="603.124506" y="130.812042" style="fill: #ff0000; stroke: #ff0000"/>
     <use xlink:href="#m15aa7d0a34" x="619.666008" y="162.425542" style="fill: #ff0000; stroke: #ff0000"/>
     <use xlink:href="#m15aa7d0a34" x="636.20751" y="192.109065" style="fill: #ff0000; stroke: #ff0000"/>
     <use xlink:href="#m15aa7d0a34" x="652.749012" y="216.838199" style="fill: #ff0000; stroke: #ff0000"/>
     <use xlink:href="#m15aa7d0a34" x="669.290514" y="234.093332" style="fill: #ff0000; stroke: #ff0000"/>
     <use xlink:href="#m15aa7d0a34" x="685.832016" y="242.116364" style="fill: #ff0000; stroke: #ff0000"/>
     <use xlink:href="#m15aa7d0a34" x="702.373518" y="240.089839" style="fill: #ff0000; stroke: #ff0000"/>
     <use xlink:href="#m15aa7d0a34" x="718.91502" y="228.220237" style="fill: #ff0000; stroke: #ff0000"/>
     <use xlink:href="#m15aa7d0a34" x="735.456522" y="207.716934" style="fill: #ff0000; stroke: #ff0000"/>
     <use xlink:href="#m15aa7d0a34" x="751.998024" y="180.668982" style="fill: #ff0000; stroke: #ff0000"/>
     <use xlink:href="#m15aa7d0a34" x="768.539526" y="149.832255" style="fill: #ff0000; stroke: #ff0000"/>
     <use xlink:href="#m15aa7d0a34" x="785.081028" y="118.348662" style="fill: #ff0000; stroke: #ff0000"/>
     <use xlink:href="#m15aa7d0a34" x="801.62253" y="89.426018" style="fill: #ff0000; stroke: #ff0000"/>
     <use xlink:href="#m15aa7d0a34" x="818.164032" y="66.01121" style="fill: #ff0000; stroke: #ff0000"/>
     <use xlink:href="#m15aa7d0a34" x="834.705534" y="50.489936" style="fill: #ff0000; stroke: #ff0000"/>
     <use xlink:href="#m15aa7d0a34" x="851.247036" y="44.443636" style="fill: #ff0000; stroke: #ff0000"/>
     <use xlink:href="#m15aa7d0a34" x="867.788538" y="48.488359" style="fill: #ff0000; stroke: #ff0000"/>
     <use xlink:href="#m15aa7d0a34" x="884.33004" y="62.211994" style="fill: #ff0000; stroke: #ff0000"/>
     <use xlink:href="#m15aa7d0a34" x="900.871542" y="84.216259" style="fill: #ff0000; stroke: #ff0000"/>
     <use xlink:href="#m15aa7d0a34" x="917.413043" y="112.259174" style="fill: #ff0000; stroke: #ff0000"/>
     <use xlink:href="#m15aa7d0a34" x="933.954545" y="143.483488" style="fill: #ff0000; stroke: #ff0000"/>
    </g>
   </g>
   <g id="line2d_16">
    <path d="M 173.045455 101.813899 
L 189.586957 82.355782 
L 206.128458 72.651964 
L 222.66996 69.068382 
L 239.211462 69.564886 
L 255.752964 73.850304 
L 272.294466 83.019995 
L 288.835968 99.386968 
L 305.37747 125.194213 
L 321.918972 157.786571 
L 338.460474 186.85066 
L 355.001976 205.046498 
L 371.543478 213.85098 
L 388.08498 216.751827 
L 404.626482 215.50372 
L 421.167984 210.123723 
L 437.709486 199.205605 
L 454.250988 180.236078 
L 470.79249 151.750808 
L 487.333992 118.895079 
L 503.875494 92.643736 
L 520.416996 77.524028 
L 536.958498 70.643637 
L 553.5 68.827311 
L 570.041502 70.792475 
L 586.583004 76.826651 
L 603.124506 88.544725 
L 619.666008 108.540561 
L 636.20751 137.876059 
L 652.749012 170.471387 
L 669.290514 195.487933 
L 685.832016 209.474387 
L 702.373518 215.576816 
L 718.91502 216.715563 
L 735.456522 213.895827 
L 751.998024 206.544683 
L 768.539526 192.736444 
L 785.081028 169.9095 
L 801.62253 138.529698 
L 818.164032 107.098814 
L 834.705534 85.348164 
L 851.247036 74.001623 
L 867.788538 69.421949 
L 884.33004 69.174328 
L 900.871542 72.656447 
L 917.413043 80.698849 
L 933.954545 95.402959 
" clip-path="url(#p695cb1c411)" style="fill: none; stroke-dasharray: 5.55,2.4; stroke-dashoffset: 0; stroke: #1f77b4; stroke-width: 1.5"/>
    <defs>
     <path id="mb3324b7269" d="M 0 3 
C 0.795609 3 1.55874 2.683901 2.12132 2.12132 
C 2.683901 1.55874 3 0.795609 3 0 
C 3 -0.795609 2.683901 -1.55874 2.12132 -2.12132 
C 1.55874 -2.683901 0.795609 -3 0 -3 
C -0.795609 -3 -1.55874 -2.683901 -2.12132 -2.12132 
C -2.683901 -1.55874 -3 -0.795609 -3 0 
C -3 0.795609 -2.683901 1.55874 -2.12132 2.12132 
C -1.55874 2.683901 -0.795609 3 0 3 
z
" style="stroke: #1f77b4"/>
    </defs>
    <g clip-path="url(#p695cb1c411)">
     <use xlink:href="#mb3324b7269" x="173.045455" y="101.813899" style="fill: #1f77b4; stroke: #1f77b4"/>
     <use xlink:href="#mb3324b7269" x="189.586957" y="82.355782" style="fill: #1f77b4; stroke: #1f77b4"/>
     <use xlink:href="#mb3324b7269" x="206.128458" y="72.651964" style="fill: #1f77b4; stroke: #1f77b4"/>
     <use xlink:href="#mb3324b7269" x="222.66996" y="69.068382" style="fill: #1f77b4; stroke: #1f77b4"/>
     <use xlink:href="#mb3324b7269" x="239.211462" y="69.564886" style="fill: #1f77b4; stroke: #1f77b4"/>
     <use xlink:href="#mb3324b7269" x="255.752964" y="73.850304" style="fill: #1f77b4; stroke: #1f77b4"/>
     <use xlink:href="#mb3324b7269" x="272.294466" y="83.019995" style="fill: #1f77b4; stroke: #1f77b4"/>
     <use xlink:href="#mb3324b7269" x="288.835968" y="99.386968" style="fill: #1f77b4; stroke: #1f77b4"/>
     <use xlink:href="#mb3324b7269" x="305.37747" y="125.194213" style="fill: #1f77b4; stroke: #1f77b4"/>
     <use xlink:href="#mb3324b7269" x="321.918972" y="157.786571" style="fill: #1f77b4; stroke: #1f77b4"/>
     <use xlink:href="#mb3324b7269" x="338.460474" y="186.85066" style="fill: #1f77b4; stroke: #1f77b4"/>
     <use xlink:href="#mb3324b7269" x="355.001976" y="205.046498" style="fill: #1f77b4; stroke: #1f77b4"/>
     <use xlink:href="#mb3324b7269" x="371.543478" y="213.85098" style="fill: #1f77b4; stroke: #1f77b4"/>
     <use xlink:href="#mb3324b7269" x="388.08498" y="216.751827" style="fill: #1f77b4; stroke: #1f77b4"/>
     <use xlink:href="#mb3324b7269" x="404.626482" y="215.50372" style="fill: #1f77b4; stroke: #1f77b4"/>
     <use xlink:href="#mb3324b7269" x="421.167984" y="210.123723" style="fill: #1f77b4; stroke: #1f77b4"/>
     <use xlink:href="#mb3324b7269" x="437.709486" y="199.205605" style="fill: #1f77b4; stroke: #1f77b4"/>
     <use xlink:href="#mb3324b7269" x="454.250988" y="180.236078" style="fill: #1f77b4; stroke: #1f77b4"/>
     <use xlink:href="#mb3324b7269" x="470.79249" y="151.750808" style="fill: #1f77b4; stroke: #1f77b4"/>
     <use xlink:href="#mb3324b7269" x="487.333992" y="118.895079" style="fill: #1f77b4; stroke: #1f77b4"/>
     <use xlink:href="#mb3324b7269" x="503.875494" y="92.643736" style="fill: #1f77b4; stroke: #1f77b4"/>
     <use xlink:href="#mb3324b7269" x="520.416996" y="77.524028" style="fill: #1f77b4; stroke: #1f77b4"/>
     <use xlink:href="#mb3324b7269" x="536.958498" y="70.643637" style="fill: #1f77b4; stroke: #1f77b4"/>
     <use xlink:href="#mb3324b7269" x="553.5" y="68.827311" style="fill: #1f77b4; stroke: #1f77b4"/>
     <use xlink:href="#mb3324b7269" x="570.041502" y="70.792475" style="fill: #1f77b4; stroke: #1f77b4"/>
     <use xlink:href="#mb3324b7269" x="586.583004" y="76.826651" style="fill: #1f77b4; stroke: #1f77b4"/>
     <use xlink:href="#mb3324b7269" x="603.124506" y="88.544725" style="fill: #1f77b4; stroke: #1f77b4"/>
     <use xlink:href="#mb3324b7269" x="619.666008" y="108.540561" style="fill: #1f77b4; stroke: #1f77b4"/>
     <use xlink:href="#mb3324b7269" x="636.20751" y="137.876059" style="fill: #1f77b4; stroke: #1f77b4"/>
     <use xlink:href="#mb3324b7269" x="652.749012" y="170.471387" style="fill: #1f77b4; stroke: #1f77b4"/>
     <use xlink:href="#mb3324b7269" x="669.290514" y="195.487933" style="fill: #1f77b4; stroke: #1f77b4"/>
     <use xlink:href="#mb3324b7269" x="685.832016" y="209.474387" style="fill: #1f77b4; stroke: #1f77b4"/>
     <use xlink:href="#mb3324b7269" x="702.373518" y="215.576816" style="fill: #1f77b4; stroke: #1f77b4"/>
     <use xlink:href="#mb3324b7269" x="718.91502" y="216.715563" style="fill: #1f77b4; stroke: #1f77b4"/>
     <use xlink:href="#mb3324b7269" x="735.456522" y="213.895827" style="fill: #1f77b4; stroke: #1f77b4"/>
     <use xlink:href="#mb3324b7269" x="751.998024" y="206.544683" style="fill: #1f77b4; stroke: #1f77b4"/>
     <use xlink:href="#mb3324b7269" x="768.539526" y="192.736444" style="fill: #1f77b4; stroke: #1f77b4"/>
     <use xlink:href="#mb3324b7269" x="785.081028" y="169.9095" style="fill: #1f77b4; stroke: #1f77b4"/>
     <use xlink:href="#mb3324b7269" x="801.62253" y="138.529698" style="fill: #1f77b4; stroke: #1f77b4"/>
     <use xlink:href="#mb3324b7269" x="818.164032" y="107.098814" style="fill: #1f77b4; stroke: #1f77b4"/>
     <use xlink:href="#mb3324b7269" x="834.705534" y="85.348164" style="fill: #1f77b4; stroke: #1f77b4"/>
     <use xlink:href="#mb3324b7269" x="851.247036" y="74.001623" style="fill: #1f77b4; stroke: #1f77b4"/>
     <use xlink:href="#mb3324b7269" x="867.788538" y="69.421949" style="fill: #1f77b4; stroke: #1f77b4"/>
     <use xlink:href="#mb3324b7269" x="884.33004" y="69.174328" style="fill: #1f77b4; stroke: #1f77b4"/>
     <use xlink:href="#mb3324b7269" x="900.871542" y="72.656447" style="fill: #1f77b4; stroke: #1f77b4"/>
     <use xlink:href="#mb3324b7269" x="917.413043" y="80.698849" style="fill: #1f77b4; stroke: #1f77b4"/>
     <use xlink:href="#mb3324b7269" x="933.954545" y="95.402959" style="fill: #1f77b4; stroke: #1f77b4"/>
    </g>
   </g>
   <g id="line2d_17">
    <path d="M 173.045455 96.512316 
L 189.586957 78.252767 
L 206.128458 71.759373 
L 222.66996 69.901284 
L 239.211462 70.430633 
L 255.752964 73.251285 
L 272.294466 79.67137 
L 288.835968 93.06907 
L 305.37747 119.696656 
L 321.918972 160.376796 
L 338.460474 193.717021 
L 355.001976 208.447122 
L 371.543478 213.528079 
L 388.08498 214.790615 
L 404.626482 213.847437 
L 421.167984 210.507045 
L 437.709486 203.161465 
L 454.250988 187.92261 
L 470.79249 158.335849 
L 487.333992 116.94394 
L 503.875494 87.085428 
L 520.416996 74.791823 
L 536.958498 70.656755 
L 553.5 69.863726 
L 570.041502 71.244068 
L 586.583004 75.258389 
L 603.124506 83.902551 
L 619.666008 101.739613 
L 636.20751 134.999571 
L 652.749012 176.018364 
L 669.290514 201.415625 
L 685.832016 211.171997 
L 702.373518 214.344136 
L 718.91502 214.659649 
L 735.456522 212.852797 
L 751.998024 208.200901 
L 768.539526 198.340088 
L 785.081028 178.143259 
L 801.62253 142.132641 
L 818.164032 102.506982 
L 834.705534 80.618966 
L 851.247036 72.551971 
L 867.788538 70.052183 
L 884.33004 70.15826 
L 900.871542 72.463365 
L 917.413043 77.977883 
L 933.954545 89.564278 
" clip-path="url(#p695cb1c411)" style="fill: none; stroke-dasharray: 5.55,2.4; stroke-dashoffset: 0; stroke: #ff7f0e; stroke-width: 1.5"/>
    <defs>
     <path id="m09a805e7ec" d="M 0 3 
C 0.795609 3 1.55874 2.683901 2.12132 2.12132 
C 2.683901 1.55874 3 0.795609 3 0 
C 3 -0.795609 2.683901 -1.55874 2.12132 -2.12132 
C 1.55874 -2.683901 0.795609 -3 0 -3 
C -0.795609 -3 -1.55874 -2.683901 -2.12132 -2.12132 
C -2.683901 -1.55874 -3 -0.795609 -3 0 
C -3 0.795609 -2.683901 1.55874 -2.12132 2.12132 
C -1.55874 2.683901 -0.795609 3 0 3 
z
" style="stroke: #ff7f0e"/>
    </defs>
    <g clip-path="url(#p695cb1c411)">
     <use xlink:href="#m09a805e7ec" x="173.045455" y="96.512316" style="fill: #ff7f0e; stroke: #ff7f0e"/>
     <use xlink:href="#m09a805e7ec" x="189.586957" y="78.252767" style="fill: #ff7f0e; stroke: #ff7f0e"/>
     <use xlink:href="#m09a805e7ec" x="206.128458" y="71.759373" style="fill: #ff7f0e; stroke: #ff7f0e"/>
     <use xlink:href="#m09a805e7ec" x="222.66996" y="69.901284" style="fill: #ff7f0e; stroke: #ff7f0e"/>
     <use xlink:href="#m09a805e7ec" x="239.211462" y="70.430633" style="fill: #ff7f0e; stroke: #ff7f0e"/>
     <use xlink:href="#m09a805e7ec" x="255.752964" y="73.251285" style="fill: #ff7f0e; stroke: #ff7f0e"/>
     <use xlink:href="#m09a805e7ec" x="272.294466" y="79.67137" style="fill: #ff7f0e; stroke: #ff7f0e"/>
     <use xlink:href="#m09a805e7ec" x="288.835968" y="93.06907" style="fill: #ff7f0e; stroke: #ff7f0e"/>
     <use xlink:href="#m09a805e7ec" x="305.37747" y="119.696656" style="fill: #ff7f0e; stroke: #ff7f0e"/>
     <use xlink:href="#m09a805e7ec" x="321.918972" y="160.376796" style="fill: #ff7f0e; stroke: #ff7f0e"/>
     <use xlink:href="#m09a805e7ec" x="338.460474" y="193.717021" style="fill: #ff7f0e; stroke: #ff7f0e"/>
     <use xlink:href="#m09a805e7ec" x="355.001976" y="208.447122" style="fill: #ff7f0e; stroke: #ff7f0e"/>
     <use xlink:href="#m09a805e7ec" x="371.543478" y="213.528079" style="fill: #ff7f0e; stroke: #ff7f0e"/>
     <use xlink:href="#m09a805e7ec" x="388.08498" y="214.790615" style="fill: #ff7f0e; stroke: #ff7f0e"/>
     <use xlink:href="#m09a805e7ec" x="404.626482" y="213.847437" style="fill: #ff7f0e; stroke: #ff7f0e"/>
     <use xlink:href="#m09a805e7ec" x="421.167984" y="210.507045" style="fill: #ff7f0e; stroke: #ff7f0e"/>
     <use xlink:href="#m09a805e7ec" x="437.709486" y="203.161465" style="fill: #ff7f0e; stroke: #ff7f0e"/>
     <use xlink:href="#m09a805e7ec" x="454.250988" y="187.92261" style="fill: #ff7f0e; stroke: #ff7f0e"/>
     <use xlink:href="#m09a805e7ec" x="470.79249" y="158.335849" style="fill: #ff7f0e; stroke: #ff7f0e"/>
     <use xlink:href="#m09a805e7ec" x="487.333992" y="116.94394" style="fill: #ff7f0e; stroke: #ff7f0e"/>
     <use xlink:href="#m09a805e7ec" x="503.875494" y="87.085428" style="fill: #ff7f0e; stroke: #ff7f0e"/>
     <use xlink:href="#m09a805e7ec" x="520.416996" y="74.791823" style="fill: #ff7f0e; stroke: #ff7f0e"/>
     <use xlink:href="#m09a805e7ec" x="536.958498" y="70.656755" style="fill: #ff7f0e; stroke: #ff7f0e"/>
     <use xlink:href="#m09a805e7ec" x="553.5" y="69.863726" style="fill: #ff7f0e; stroke: #ff7f0e"/>
     <use xlink:href="#m09a805e7ec" x="570.041502" y="71.244068" style="fill: #ff7f0e; stroke: #ff7f0e"/>
     <use xlink:href="#m09a805e7ec" x="586.583004" y="75.258389" style="fill: #ff7f0e; stroke: #ff7f0e"/>
     <use xlink:href="#m09a805e7ec" x="603.124506" y="83.902551" style="fill: #ff7f0e; stroke: #ff7f0e"/>
     <use xlink:href="#m09a805e7ec" x="619.666008" y="101.739613" style="fill: #ff7f0e; stroke: #ff7f0e"/>
     <use xlink:href="#m09a805e7ec" x="636.20751" y="134.999571" style="fill: #ff7f0e; stroke: #ff7f0e"/>
     <use xlink:href="#m09a805e7ec" x="652.749012" y="176.018364" style="fill: #ff7f0e; stroke: #ff7f0e"/>
     <use xlink:href="#m09a805e7ec" x="669.290514" y="201.415625" style="fill: #ff7f0e; stroke: #ff7f0e"/>
     <use xlink:href="#m09a805e7ec" x="685.832016" y="211.171997" style="fill: #ff7f0e; stroke: #ff7f0e"/>
     <use xlink:href="#m09a805e7ec" x="702.373518" y="214.344136" style="fill: #ff7f0e; stroke: #ff7f0e"/>
     <use xlink:href="#m09a805e7ec" x="718.91502" y="214.659649" style="fill: #ff7f0e; stroke: #ff7f0e"/>
     <use xlink:href="#m09a805e7ec" x="735.456522" y="212.852797" style="fill: #ff7f0e; stroke: #ff7f0e"/>
     <use xlink:href="#m09a805e7ec" x="751.998024" y="208.200901" style="fill: #ff7f0e; stroke: #ff7f0e"/>
     <use xlink:href="#m09a805e7ec" x="768.539526" y="198.340088" style="fill: #ff7f0e; stroke: #ff7f0e"/>
     <use xlink:href="#m09a805e7ec" x="785.081028" y="178.143259" style="fill: #ff7f0e; stroke: #ff7f0e"/>
     <use xlink:href="#m09a805e7ec" x="801.62253" y="142.132641" style="fill: #ff7f0e; stroke: #ff7f0e"/>
     <use xlink:href="#m09a805e7ec" x="818.164032" y="102.506982" style="fill: #ff7f0e; stroke: #ff7f0e"/>
     <use xlink:href="#m09a805e7ec" x="834.705534" y="80.618966" style="fill: #ff7f0e; stroke: #ff7f0e"/>
     <use xlink:href="#m09a805e7ec" x="851.247036" y="72.551971" style="fill: #ff7f0e; stroke: #ff7f0e"/>
     <use xlink:href="#m09a805e7ec" x="867.788538" y="70.052183" style="fill: #ff7f0e; stroke: #ff7f0e"/>
     <use xlink:href="#m09a805e7ec" x="884.33004" y="70.15826" style="fill: #ff7f0e; stroke: #ff7f0e"/>
     <use xlink:href="#m09a805e7ec" x="900.871542" y="72.463365" style="fill: #ff7f0e; stroke: #ff7f0e"/>
     <use xlink:href="#m09a805e7ec" x="917.413043" y="77.977883" style="fill: #ff7f0e; stroke: #ff7f0e"/>
     <use xlink:href="#m09a805e7ec" x="933.954545" y="89.564278" style="fill: #ff7f0e; stroke: #ff7f0e"/>
    </g>
   </g>
   <g id="line2d_18">
    <path d="M 173.045455 62.211994 
L 189.586957 48.488359 
L 206.128458 44.443636 
L 222.66996 50.489936 
L 239.211462 66.01121 
L 255.752964 89.426018 
L 272.294466 118.348662 
L 288.835968 149.832255 
L 305.37747 180.668982 
L 321.918972 207.716934 
L 338.460474 228.220237 
L 355.001976 240.089839 
L 371.543478 242.116364 
L 388.08498 234.093332 
L 404.626482 216.838199 
L 421.167984 192.109065 
L 437.709486 162.425542 
L 454.250988 130.812042 
L 470.79249 100.489617 
L 487.333992 74.547773 
L 503.875494 55.629686 
L 520.416996 45.662892 
L 536.958498 45.662892 
L 553.5 55.629686 
L 570.041502 74.547773 
L 586.583004 100.489617 
L 603.124506 130.812042 
L 619.666008 162.425542 
L 636.20751 192.109065 
L 652.749012 216.838199 
L 669.290514 234.093332 
L 685.832016 242.116364 
L 702.373518 240.089839 
L 718.91502 228.220237 
L 735.456522 207.716934 
L 751.998024 180.668982 
L 768.539526 149.832255 
L 785.081028 118.348662 
L 801.62253 89.426018 
L 818.164032 66.01121 
L 834.705534 50.489936 
L 851.247036 44.443636 
L 867.788538 48.488359 
L 884.33004 62.211994 
L 900.871542 84.216259 
L 917.413043 112.259174 
L 933.954545 143.483488 
" clip-path="url(#p695cb1c411)" style="fill: none; stroke: #2ca02c; stroke-width: 1.5; stroke-linecap: square"/>
   </g>
   <g id="patch_3">
    <path d="M 135 252 
L 135 34.56 
" style="fill: none; stroke: #000000; stroke-width: 0.8; stroke-linejoin: miter; stroke-linecap: square"/>
   </g>
   <g id="patch_4">
    <path d="M 972 252 
L 972 34.56 
" style="fill: none; stroke: #000000; stroke-width: 0.8; stroke-linejoin: miter; stroke-linecap: square"/>
   </g>
   <g id="patch_5">
    <path d="M 135 252 
L 972 252 
" style="fill: none; stroke: #000000; stroke-width: 0.8; stroke-linejoin: miter; stroke-linecap: square"/>
   </g>
   <g id="patch_6">
    <path d="M 135 34.56 
L 972 34.56 
" style="fill: none; stroke: #000000; stroke-width: 0.8; stroke-linejoin: miter; stroke-linecap: square"/>
   </g>
   <g id="legend_1">
    <g id="patch_7">
     <path d="M 142 247 
L 237.08125 247 
Q 239.08125 247 239.08125 245 
L 239.08125 186.73125 
Q 239.08125 184.73125 237.08125 184.73125 
L 142 184.73125 
Q 140 184.73125 140 186.73125 
L 140 245 
Q 140 247 142 247 
z
" style="fill: #ffffff; opacity: 0.8; stroke: #cccccc; stroke-linejoin: miter"/>
    </g>
    <g id="line2d_19">
     <path d="M 144 192.829688 
L 154 192.829688 
L 164 192.829688 
" style="fill: none; stroke: #ff0000; stroke-width: 1.5; stroke-linecap: square"/>
     <g>
      <use xlink:href="#m15aa7d0a34" x="154" y="192.829688" style="fill: #ff0000; stroke: #ff0000"/>
     </g>
    </g>
    <g id="text_15">
     <!-- original data -->
     <g transform="translate(172 196.329688)scale(0.1 -0.1)">
      <defs>
       <path id="DejaVuSans-6f" d="M 1959 3097 
Q 1497 3097 1228 2736 
Q 959 2375 959 1747 
Q 959 1119 1226 758 
Q 1494 397 1959 397 
Q 2419 397 2687 759 
Q 2956 1122 2956 1747 
Q 2956 2369 2687 2733 
Q 2419 3097 1959 3097 
z
M 1959 3584 
Q 2709 3584 3137 3096 
Q 3566 2609 3566 1747 
Q 3566 888 3137 398 
Q 2709 -91 1959 -91 
Q 1206 -91 779 398 
Q 353 888 353 1747 
Q 353 2609 779 3096 
Q 1206 3584 1959 3584 
z
" transform="scale(0.015625)"/>
       <path id="DejaVuSans-72" d="M 2631 2963 
Q 2534 3019 2420 3045 
Q 2306 3072 2169 3072 
Q 1681 3072 1420 2755 
Q 1159 2438 1159 1844 
L 1159 0 
L 581 0 
L 581 3500 
L 1159 3500 
L 1159 2956 
Q 1341 3275 1631 3429 
Q 1922 3584 2338 3584 
Q 2397 3584 2469 3576 
Q 2541 3569 2628 3553 
L 2631 2963 
z
" transform="scale(0.015625)"/>
       <path id="DejaVuSans-69" d="M 603 3500 
L 1178 3500 
L 1178 0 
L 603 0 
L 603 3500 
z
M 603 4863 
L 1178 4863 
L 1178 4134 
L 603 4134 
L 603 4863 
z
" transform="scale(0.015625)"/>
       <path id="DejaVuSans-67" d="M 2906 1791 
Q 2906 2416 2648 2759 
Q 2391 3103 1925 3103 
Q 1463 3103 1205 2759 
Q 947 2416 947 1791 
Q 947 1169 1205 825 
Q 1463 481 1925 481 
Q 2391 481 2648 825 
Q 2906 1169 2906 1791 
z
M 3481 434 
Q 3481 -459 3084 -895 
Q 2688 -1331 1869 -1331 
Q 1566 -1331 1297 -1286 
Q 1028 -1241 775 -1147 
L 775 -588 
Q 1028 -725 1275 -790 
Q 1522 -856 1778 -856 
Q 2344 -856 2625 -561 
Q 2906 -266 2906 331 
L 2906 616 
Q 2728 306 2450 153 
Q 2172 0 1784 0 
Q 1141 0 747 490 
Q 353 981 353 1791 
Q 353 2603 747 3093 
Q 1141 3584 1784 3584 
Q 2172 3584 2450 3431 
Q 2728 3278 2906 2969 
L 2906 3500 
L 3481 3500 
L 3481 434 
z
" transform="scale(0.015625)"/>
       <path id="DejaVuSans-6e" d="M 3513 2113 
L 3513 0 
L 2938 0 
L 2938 2094 
Q 2938 2591 2744 2837 
Q 2550 3084 2163 3084 
Q 1697 3084 1428 2787 
Q 1159 2491 1159 1978 
L 1159 0 
L 581 0 
L 581 3500 
L 1159 3500 
L 1159 2956 
Q 1366 3272 1645 3428 
Q 1925 3584 2291 3584 
Q 2894 3584 3203 3211 
Q 3513 2838 3513 2113 
z
" transform="scale(0.015625)"/>
       <path id="DejaVuSans-61" d="M 2194 1759 
Q 1497 1759 1228 1600 
Q 959 1441 959 1056 
Q 959 750 1161 570 
Q 1363 391 1709 391 
Q 2188 391 2477 730 
Q 2766 1069 2766 1631 
L 2766 1759 
L 2194 1759 
z
M 3341 1997 
L 3341 0 
L 2766 0 
L 2766 531 
Q 2569 213 2275 61 
Q 1981 -91 1556 -91 
Q 1019 -91 701 211 
Q 384 513 384 1019 
Q 384 1609 779 1909 
Q 1175 2209 1959 2209 
L 2766 2209 
L 2766 2266 
Q 2766 2663 2505 2880 
Q 2244 3097 1772 3097 
Q 1472 3097 1187 3025 
Q 903 2953 641 2809 
L 641 3341 
Q 956 3463 1253 3523 
Q 1550 3584 1831 3584 
Q 2591 3584 2966 3190 
Q 3341 2797 3341 1997 
z
" transform="scale(0.015625)"/>
       <path id="DejaVuSans-6c" d="M 603 4863 
L 1178 4863 
L 1178 0 
L 603 0 
L 603 4863 
z
" transform="scale(0.015625)"/>
       <path id="DejaVuSans-20" transform="scale(0.015625)"/>
       <path id="DejaVuSans-64" d="M 2906 2969 
L 2906 4863 
L 3481 4863 
L 3481 0 
L 2906 0 
L 2906 525 
Q 2725 213 2448 61 
Q 2172 -91 1784 -91 
Q 1150 -91 751 415 
Q 353 922 353 1747 
Q 353 2572 751 3078 
Q 1150 3584 1784 3584 
Q 2172 3584 2448 3432 
Q 2725 3281 2906 2969 
z
M 947 1747 
Q 947 1113 1208 752 
Q 1469 391 1925 391 
Q 2381 391 2643 752 
Q 2906 1113 2906 1747 
Q 2906 2381 2643 2742 
Q 2381 3103 1925 3103 
Q 1469 3103 1208 2742 
Q 947 2381 947 1747 
z
" transform="scale(0.015625)"/>
       <path id="DejaVuSans-74" d="M 1172 4494 
L 1172 3500 
L 2356 3500 
L 2356 3053 
L 1172 3053 
L 1172 1153 
Q 1172 725 1289 603 
Q 1406 481 1766 481 
L 2356 481 
L 2356 0 
L 1766 0 
Q 1100 0 847 248 
Q 594 497 594 1153 
L 594 3053 
L 172 3053 
L 172 3500 
L 594 3500 
L 594 4494 
L 1172 4494 
z
" transform="scale(0.015625)"/>
      </defs>
      <use xlink:href="#DejaVuSans-6f"/>
      <use xlink:href="#DejaVuSans-72" x="61.181641"/>
      <use xlink:href="#DejaVuSans-69" x="102.294922"/>
      <use xlink:href="#DejaVuSans-67" x="130.078125"/>
      <use xlink:href="#DejaVuSans-69" x="193.554688"/>
      <use xlink:href="#DejaVuSans-6e" x="221.337891"/>
      <use xlink:href="#DejaVuSans-61" x="284.716797"/>
      <use xlink:href="#DejaVuSans-6c" x="345.996094"/>
      <use xlink:href="#DejaVuSans-20" x="373.779297"/>
      <use xlink:href="#DejaVuSans-64" x="405.566406"/>
      <use xlink:href="#DejaVuSans-61" x="469.042969"/>
      <use xlink:href="#DejaVuSans-74" x="530.322266"/>
      <use xlink:href="#DejaVuSans-61" x="569.53125"/>
     </g>
    </g>
    <g id="line2d_20">
     <path d="M 144 207.507812 
L 154 207.507812 
L 164 207.507812 
" style="fill: none; stroke-dasharray: 5.55,2.4; stroke-dashoffset: 0; stroke: #1f77b4; stroke-width: 1.5"/>
     <g>
      <use xlink:href="#mb3324b7269" x="154" y="207.507812" style="fill: #1f77b4; stroke: #1f77b4"/>
     </g>
    </g>
    <g id="text_16">
     <!-- model_0 -->
     <g transform="translate(172 211.007812)scale(0.1 -0.1)">
      <defs>
       <path id="DejaVuSans-6d" d="M 3328 2828 
Q 3544 3216 3844 3400 
Q 4144 3584 4550 3584 
Q 5097 3584 5394 3201 
Q 5691 2819 5691 2113 
L 5691 0 
L 5113 0 
L 5113 2094 
Q 5113 2597 4934 2840 
Q 4756 3084 4391 3084 
Q 3944 3084 3684 2787 
Q 3425 2491 3425 1978 
L 3425 0 
L 2847 0 
L 2847 2094 
Q 2847 2600 2669 2842 
Q 2491 3084 2119 3084 
Q 1678 3084 1418 2786 
Q 1159 2488 1159 1978 
L 1159 0 
L 581 0 
L 581 3500 
L 1159 3500 
L 1159 2956 
Q 1356 3278 1631 3431 
Q 1906 3584 2284 3584 
Q 2666 3584 2933 3390 
Q 3200 3197 3328 2828 
z
" transform="scale(0.015625)"/>
       <path id="DejaVuSans-65" d="M 3597 1894 
L 3597 1613 
L 953 1613 
Q 991 1019 1311 708 
Q 1631 397 2203 397 
Q 2534 397 2845 478 
Q 3156 559 3463 722 
L 3463 178 
Q 3153 47 2828 -22 
Q 2503 -91 2169 -91 
Q 1331 -91 842 396 
Q 353 884 353 1716 
Q 353 2575 817 3079 
Q 1281 3584 2069 3584 
Q 2775 3584 3186 3129 
Q 3597 2675 3597 1894 
z
M 3022 2063 
Q 3016 2534 2758 2815 
Q 2500 3097 2075 3097 
Q 1594 3097 1305 2825 
Q 1016 2553 972 2059 
L 3022 2063 
z
" transform="scale(0.015625)"/>
       <path id="DejaVuSans-5f" d="M 3263 -1063 
L 3263 -1509 
L -63 -1509 
L -63 -1063 
L 3263 -1063 
z
" transform="scale(0.015625)"/>
      </defs>
      <use xlink:href="#DejaVuSans-6d"/>
      <use xlink:href="#DejaVuSans-6f" x="97.412109"/>
      <use xlink:href="#DejaVuSans-64" x="158.59375"/>
      <use xlink:href="#DejaVuSans-65" x="222.070312"/>
      <use xlink:href="#DejaVuSans-6c" x="283.59375"/>
      <use xlink:href="#DejaVuSans-5f" x="311.376953"/>
      <use xlink:href="#DejaVuSans-30" x="361.376953"/>
     </g>
    </g>
    <g id="line2d_21">
     <path d="M 144 222.464063 
L 154 222.464063 
L 164 222.464063 
" style="fill: none; stroke-dasharray: 5.55,2.4; stroke-dashoffset: 0; stroke: #ff7f0e; stroke-width: 1.5"/>
     <g>
      <use xlink:href="#m09a805e7ec" x="154" y="222.464063" style="fill: #ff7f0e; stroke: #ff7f0e"/>
     </g>
    </g>
    <g id="text_17">
     <!-- model_1 -->
     <g transform="translate(172 225.964063)scale(0.1 -0.1)">
      <use xlink:href="#DejaVuSans-6d"/>
      <use xlink:href="#DejaVuSans-6f" x="97.412109"/>
      <use xlink:href="#DejaVuSans-64" x="158.59375"/>
      <use xlink:href="#DejaVuSans-65" x="222.070312"/>
      <use xlink:href="#DejaVuSans-6c" x="283.59375"/>
      <use xlink:href="#DejaVuSans-5f" x="311.376953"/>
      <use xlink:href="#DejaVuSans-31" x="361.376953"/>
     </g>
    </g>
    <g id="line2d_22">
     <path d="M 144 237.420313 
L 154 237.420313 
L 164 237.420313 
" style="fill: none; stroke: #2ca02c; stroke-width: 1.5; stroke-linecap: square"/>
    </g>
    <g id="text_18">
     <!-- Linear Reg -->
     <g transform="translate(172 240.920313)scale(0.1 -0.1)">
      <defs>
       <path id="DejaVuSans-4c" d="M 628 4666 
L 1259 4666 
L 1259 531 
L 3531 531 
L 3531 0 
L 628 0 
L 628 4666 
z
" transform="scale(0.015625)"/>
       <path id="DejaVuSans-52" d="M 2841 2188 
Q 3044 2119 3236 1894 
Q 3428 1669 3622 1275 
L 4263 0 
L 3584 0 
L 2988 1197 
Q 2756 1666 2539 1819 
Q 2322 1972 1947 1972 
L 1259 1972 
L 1259 0 
L 628 0 
L 628 4666 
L 2053 4666 
Q 2853 4666 3247 4331 
Q 3641 3997 3641 3322 
Q 3641 2881 3436 2590 
Q 3231 2300 2841 2188 
z
M 1259 4147 
L 1259 2491 
L 2053 2491 
Q 2509 2491 2742 2702 
Q 2975 2913 2975 3322 
Q 2975 3731 2742 3939 
Q 2509 4147 2053 4147 
L 1259 4147 
z
" transform="scale(0.015625)"/>
      </defs>
      <use xlink:href="#DejaVuSans-4c"/>
      <use xlink:href="#DejaVuSans-69" x="55.712891"/>
      <use xlink:href="#DejaVuSans-6e" x="83.496094"/>
      <use xlink:href="#DejaVuSans-65" x="146.875"/>
      <use xlink:href="#DejaVuSans-61" x="208.398438"/>
      <use xlink:href="#DejaVuSans-72" x="269.677734"/>
      <use xlink:href="#DejaVuSans-20" x="310.791016"/>
      <use xlink:href="#DejaVuSans-52" x="342.578125"/>
      <use xlink:href="#DejaVuSans-65" x="407.560547"/>
      <use xlink:href="#DejaVuSans-67" x="469.083984"/>
     </g>
    </g>
   </g>
  </g>
 </g>
 <defs>
  <clipPath id="p695cb1c411">
   <rect x="135" y="34.56" width="837" height="217.44"/>
  </clipPath>
 </defs>
</svg>
